<svg xmlns="http://www.w3.org/2000/svg" enable-background="new 0 0 3000 3000" viewBox="0 0 3000 3000" id="mark-on-calendar">
  <g>
    <path fill="#DFE4EF" d="M1489.253 2588.505c-637.31-26.339-985.638-114.59-975.239-185.082 10.399-70.492 1552.867-133.482 1959.615-21.162C2542.544 2401.291 2343.958 2623.828 1489.253 2588.505zM896.281 2587.765c-315.186-46.047-397.167-91.317-347.873-45.416C683.889 2668.504 906.557 2589.266 896.281 2587.765zM2389.308 2538.795c-92.905 25.626-390.418 87.667-382.837 118.249 7.581 30.582 157.304-26.505 235.009-24.465C2319.184 2634.617 2463.221 2518.407 2389.308 2538.795zM947.503 2598.698c-27.526 4.935-70.973 12.677-70.277 26.103.695 13.425 206.313 68.093 261.041 51.273 54.727-16.821 119.619-44.514 68.018-51.273C1154.685 2618.042 952.194 2597.857 947.503 2598.698z"></path>
  </g>
  <g>
    <g>
      <path fill="#DFE4EF" d="M2155.087,847.033H588.711c-41.373,0-74.912,33.541-74.912,74.912v1110.417
			c0,41.371,33.54,74.912,74.912,74.912h1566.375c41.373,0,74.912-33.541,74.912-74.912V921.945
			C2229.999,880.574,2196.459,847.033,2155.087,847.033z"></path>
      <path fill="#B9C1E1" d="M2230.069,1146.6v270.584c-247.659,58.28-1441.652,193.271-1716.281,253.352v-274.179
			L2230.069,1146.6z" opacity=".2"></path>
      <polygon fill="#B9C1E1" points="513.788 1744.552 2230.069 1518.616 2230.069 1598.77 513.788 1874.448" opacity=".2"></polygon>
      <path fill="#B9C1E1" d="M2155.087,813.322H588.711c-41.373,0-74.912,33.542-74.912,74.912v179.365h1716.2V888.235
			C2229.999,846.864,2196.459,813.322,2155.087,813.322z"></path>
      <g>
        <path fill="#929ED3" d="M1894.085,819.26c0,25.385-15.571,45.967-34.78,45.967c-19.208,0-34.777-20.582-34.777-45.967
				c0-25.386,15.569-45.963,34.777-45.963C1878.514,773.297,1894.085,793.874,1894.085,819.26z"></path>
      </g>
      <g>
        <path fill="#929ED3" d="M894.122,819.26c0,25.385-15.571,45.967-34.78,45.967c-19.209,0-34.777-20.582-34.777-45.967
				c0-25.386,15.569-45.963,34.777-45.963C878.552,773.297,894.122,793.874,894.122,819.26z"></path>
      </g>
      <g>
        <path fill="#929ED3" d="M1400.111,819.26c0,25.385-15.571,45.967-34.779,45.967c-19.209,0-34.777-20.582-34.777-45.967
				c0-25.386,15.568-45.963,34.777-45.963C1384.54,773.297,1400.111,793.874,1400.111,819.26z"></path>
      </g>
      <g>
        <path fill="#DFE4EF" d="M1122.72 941.987c0 2.67 0 5.321 0 7.948s-.137 5.279-.407 7.948c-.503 5.661-1.726 11.017-3.672 16.074-1.947 5.05-4.581 9.478-7.913 13.278-3.332 3.808-7.371 6.817-12.131 9.035-4.751 2.219-10.208 3.332-16.37 3.332-2.397 0-4.905-.204-7.506-.612-2.609-.407-5.185-1.02-7.743-1.835-2.559-.817-5.006-1.819-7.345-3.026-2.328-1.199-4.402-2.593-6.213-4.174l4.216-28.127c2.669 2.583 5.635 4.675 8.898 6.282 3.257 1.606 6.818 2.413 10.668 2.413 2.491 0 4.591-.365 6.316-1.088 1.716-.722 3.144-1.718 4.275-2.992 1.139-1.266 2.032-2.746 2.686-4.446.654-1.7 1.13-3.51 1.428-5.44.298-1.921.475-3.901.545-5.941.067-2.041.101-4.054.101-6.043 0-7.208-.365-14.374-1.088-21.506-.724-7.132-1.36-14.28-1.904-21.436l31.119-2.032C1122.041 913.725 1122.72 927.86 1122.72 941.987zM1218.533 992.129l-33.694 4.345-4.08-15.352h-15.487l-3.392 15.352-34.655-3.392 27.039-90.5 37.774-1.905L1218.533 992.129zM1178.318 960.332l-5.168-23.639-5.023 23.639H1178.318zM1319.318 900.542l-4.895 92.132-35.599 3.255-19.022-49.317-2.993 50.27h-30.566l2.439-96.34 33.975-1.624 23.502 48.909 1.09-46.197L1319.318 900.542zM1413.03 922.42c0 3.35-.161 7.047-.475 11.077-.315 4.028-.842 8.194-1.565 12.503-.721 4.3-1.666 8.661-2.821 13.074-1.147 4.42-2.593 8.661-4.308 12.741-1.726 4.072-3.724 7.888-6.011 11.449-2.295 3.553-4.921 6.656-7.887 9.308-2.967 2.644-6.282 4.726-9.954 6.247-3.662 1.513-7.743 2.279-12.222 2.279-5.253 0-9.819-.85-13.694-2.549-3.868-1.7-7.192-3.986-9.954-6.86-2.763-2.881-5.024-6.231-6.792-10.055-1.768-3.826-3.146-7.88-4.148-12.165-.994-4.275-1.684-8.653-2.066-13.115-.391-4.454-.578-8.747-.578-12.869 0-6.342.315-12.673.952-18.991.63-6.315 1.539-12.622 2.712-18.921l31.797 1.225c-1.223 7.106-2.277 14.255-3.161 21.429-.883 7.182-1.326 14.399-1.326 21.641 0 .774.033 1.913.103 3.434.068 1.513.195 3.213.374 5.092.187 1.879.441 3.808.782 5.78.34 1.963.807 3.766 1.394 5.396.587 1.632 1.3 2.967 2.142 4.012.833 1.038 1.819 1.555 2.958 1.555 1.308 0 2.491-.62 3.528-1.861 1.046-1.249 1.964-2.915 2.753-4.997.792-2.084 1.48-4.48 2.074-7.2.587-2.72 1.09-5.552 1.497-8.492.408-2.941.73-5.891.977-8.832.256-2.941.459-5.687.612-8.22.161-2.541.264-4.777.306-6.731.051-1.946.067-3.392.067-4.344 0-3.535-.049-7.055-.169-10.566-.111-3.51-.281-7.003-.511-10.497h31.799C1412.758 909.645 1413.03 915.994 1413.03 922.42zM1506.472 992.129l-33.695 4.345-4.08-15.352h-15.488l-3.392 15.352-34.655-3.392 27.039-90.5 37.774-1.905L1506.472 992.129zM1466.258 960.332l-5.167-23.639-5.025 23.639H1466.258zM1594.48 932.477c0 3.536-.304 6.74-.916 9.612-.613 2.873-1.573 5.518-2.891 7.914-1.308 2.406-3.008 4.625-5.09 6.657-2.084 2.04-4.599 3.986-7.54 5.848l16.167 28.807-30.574 5.975-10.456-28.943-8.431.273-1.217 28.262h-29.215c.223-10.327.443-20.606.646-30.847.205-10.234.443-20.51.714-30.839.085-5.21.179-10.37.272-15.496.085-5.116.264-10.275.537-15.487 3.169-1.173 6.297-2.15 9.375-2.923 3.086-.765 6.17-1.37 9.273-1.793 3.102-.433 6.256-.732 9.443-.885 3.197-.161 6.468-.238 9.818-.238 5.168 0 10.157.716 14.986 2.133 4.818 1.429 9.085 3.571 12.801 6.426 3.714 2.847 6.697 6.41 8.934 10.668C1593.359 921.859 1594.48 926.815 1594.48 932.477zM1564.042 934.652c0-1.904-.254-3.646-.781-5.235-.519-1.582-1.284-2.95-2.304-4.106-1.02-1.157-2.287-2.066-3.808-2.72-1.513-.654-3.299-.986-5.331-.986-.909 0-1.793.06-2.651.169-.859.119-1.7.29-2.517.511l-1.088 25.27h1.632c1.947 0 3.927-.247 5.95-.748 2.016-.493 3.826-1.267 5.432-2.303 1.606-1.046 2.925-2.381 3.944-4.012C1563.531 938.86 1564.042 936.913 1564.042 934.652zM1690.437 905.982l-37.365 52.172-1.77 42.535h-32.197l.815-42.262-19.43-50.406 34.645-4.351 5.44 29.351 17.257-29.351L1690.437 905.982z"></path>
      </g>
    </g>
    <g>
      <g>
        <path fill="#B9C1E1" d="M918.57 1339.311H800.117c-13.98 0-25.314-11.334-25.314-25.315v-118.453c0-13.981 11.334-25.315 25.314-25.315H918.57c13.98 0 25.314 11.334 25.314 25.315v118.453C943.885 1327.978 932.551 1339.311 918.57 1339.311zM1168.561 1339.311h-118.454c-13.981 0-25.315-11.334-25.315-25.315v-118.453c0-13.981 11.334-25.315 25.315-25.315h118.454c13.98 0 25.314 11.334 25.314 25.315v118.453C1193.875 1327.978 1182.542 1339.311 1168.561 1339.311z" opacity=".5"></path>
        <path fill="#B9C1E1" d="M1418.551,1339.311h-118.453c-13.981,0-25.315-11.334-25.315-25.315v-118.453
				c0-13.981,11.334-25.315,25.315-25.315h118.453c13.981,0,25.315,11.334,25.315,25.315v118.453
				C1443.866,1327.978,1432.532,1339.311,1418.551,1339.311z"></path>
        <path fill="#B9C1E1" d="M1668.542 1339.311h-118.453c-13.981 0-25.315-11.334-25.315-25.315v-118.453c0-13.981 11.334-25.315 25.315-25.315h118.453c13.981 0 25.315 11.334 25.315 25.315v118.453C1693.857 1327.978 1682.523 1339.311 1668.542 1339.311zM1918.533 1339.311h-118.454c-13.98 0-25.314-11.334-25.314-25.315v-118.453c0-13.981 11.334-25.315 25.314-25.315h118.454c13.981 0 25.315 11.334 25.315 25.315v118.453C1943.848 1327.978 1932.514 1339.311 1918.533 1339.311z" opacity=".5"></path>
      </g>
      <g>
        <path fill="#B9C1E1" d="M918.57 1553.292H800.117c-13.98 0-25.314-11.334-25.314-25.315v-118.453c0-13.981 11.334-25.315 25.314-25.315H918.57c13.98 0 25.314 11.334 25.314 25.315v118.453C943.885 1541.958 932.551 1553.292 918.57 1553.292zM1168.561 1553.292h-118.454c-13.981 0-25.315-11.334-25.315-25.315v-118.453c0-13.981 11.334-25.315 25.315-25.315h118.454c13.98 0 25.314 11.334 25.314 25.315v118.453C1193.875 1541.958 1182.542 1553.292 1168.561 1553.292zM1418.551 1553.292h-118.453c-13.981 0-25.315-11.334-25.315-25.315v-118.453c0-13.981 11.334-25.315 25.315-25.315h118.453c13.981 0 25.315 11.334 25.315 25.315v118.453C1443.866 1541.958 1432.532 1553.292 1418.551 1553.292zM1668.542 1553.292h-118.453c-13.981 0-25.315-11.334-25.315-25.315v-118.453c0-13.981 11.334-25.315 25.315-25.315h118.453c13.981 0 25.315 11.334 25.315 25.315v118.453C1693.857 1541.958 1682.523 1553.292 1668.542 1553.292z" opacity=".5"></path>
        <path fill="#B9C1E1" d="M1918.533,1553.292h-118.454c-13.98,0-25.314-11.334-25.314-25.315v-118.453
				c0-13.981,11.334-25.315,25.314-25.315h118.454c13.981,0,25.315,11.334,25.315,25.315v118.453
				C1943.848,1541.958,1932.514,1553.292,1918.533,1553.292z"></path>
      </g>
      <g>
        <path fill="#B9C1E1" d="M918.57,1767.272H800.117c-13.98,0-25.314-11.334-25.314-25.315v-118.454
				c0-13.98,11.334-25.314,25.314-25.314H918.57c13.98,0,25.314,11.334,25.314,25.314v118.454
				C943.885,1755.938,932.551,1767.272,918.57,1767.272z" opacity=".5"></path>
        <path fill="#B9C1E1" d="M1168.561,1767.272h-118.454c-13.981,0-25.315-11.334-25.315-25.315v-118.454
				c0-13.98,11.334-25.314,25.315-25.314h118.454c13.98,0,25.314,11.334,25.314,25.314v118.454
				C1193.875,1755.938,1182.542,1767.272,1168.561,1767.272z"></path>
        <path fill="#B9C1E1" d="M1418.551 1767.272h-118.453c-13.981 0-25.315-11.334-25.315-25.315v-118.454c0-13.98 11.334-25.314 25.315-25.314h118.453c13.981 0 25.315 11.334 25.315 25.314v118.454C1443.866 1755.938 1432.532 1767.272 1418.551 1767.272zM1668.542 1767.272h-118.453c-13.981 0-25.315-11.334-25.315-25.315v-118.454c0-13.98 11.334-25.314 25.315-25.314h118.453c13.981 0 25.315 11.334 25.315 25.314v118.454C1693.857 1755.938 1682.523 1767.272 1668.542 1767.272zM1918.533 1767.272h-118.454c-13.98 0-25.314-11.334-25.314-25.315v-118.454c0-13.98 11.334-25.314 25.314-25.314h118.454c13.981 0 25.315 11.334 25.315 25.314v118.454C1943.848 1755.938 1932.514 1767.272 1918.533 1767.272z" opacity=".5"></path>
      </g>
      <g>
        <path fill="#B9C1E1" d="M918.57 1981.251H800.117c-13.98 0-25.314-11.334-25.314-25.314v-118.454c0-13.98 11.334-25.314 25.314-25.314H918.57c13.98 0 25.314 11.334 25.314 25.314v118.454C943.885 1969.918 932.551 1981.251 918.57 1981.251zM1168.561 1981.251h-118.454c-13.981 0-25.315-11.334-25.315-25.314v-118.454c0-13.98 11.334-25.314 25.315-25.314h118.454c13.98 0 25.314 11.334 25.314 25.314v118.454C1193.875 1969.918 1182.542 1981.251 1168.561 1981.251z" opacity=".5"></path>
        <path fill="#B9C1E1" d="M1418.551 1981.251h-118.453c-13.981 0-25.315-11.334-25.315-25.314v-118.454c0-13.98 11.334-25.314 25.315-25.314h118.453c13.981 0 25.315 11.334 25.315 25.314v118.454C1443.866 1969.918 1432.532 1981.251 1418.551 1981.251zM1668.542 1981.251h-118.453c-13.981 0-25.315-11.334-25.315-25.314v-118.454c0-13.98 11.334-25.314 25.315-25.314h118.453c13.981 0 25.315 11.334 25.315 25.314v118.454C1693.857 1969.918 1682.523 1981.251 1668.542 1981.251z"></path>
        <path fill="#B9C1E1" d="M1918.533,1981.251h-118.454c-13.98,0-25.314-11.334-25.314-25.314v-118.454
				c0-13.98,11.334-25.314,25.314-25.314h118.454c13.981,0,25.315,11.334,25.315,25.314v118.454
				C1943.848,1969.918,1932.514,1981.251,1918.533,1981.251z" opacity=".5"></path>
      </g>
    </g>
    <path fill="#929ED3" d="M937.973,1107.459c-85.07-16.89-180.565,2.815-214.656,92.471c-27.417,72.143,7.715,150.332,83.402,169.411
		c66.721,16.784,181.816-3.754,205.585-80.691c27.211-87.989-83.401-116.554-145.432-121.767c-18.662-1.563-18.557,27.627,0,29.191
		c28.253,2.397,60.57,3.962,85.591,19.496c52.126,32.63,30.65,84.964-13.761,109.985c-44.411,25.02-112.489,31.275-156.379,3.544
		c-47.955-30.546-49.518-97.684-20.849-141.47c37.635-57.86,106.336-64.324,168.263-52.126c18.347,3.648,26.166-24.5,7.713-28.148
		L937.973,1107.459z"></path>
  </g>
  <g>
    <polygon fill="#DFE4EF" points="1537.745 2141.491 1607.807 2104.827 1872.699 2114.65 1833.85 2146.969"></polygon>
    <polygon fill="#B9C1E1" points="1537.745 2141.491 1554.501 2421.612 1807.563 2447.719 1833.85 2146.969"></polygon>
    <g opacity=".5">
      <g>
        <g>
          <path fill="#929ED3" d="M1788.505,2174.107c-0.552,9.584,5.852,17.399,14.293,17.506c8.434,0.106,15.785-7.525,16.427-17.095
					c0.646-9.627-5.734-17.573-14.259-17.694C1796.433,2156.703,1789.059,2164.463,1788.505,2174.107z"></path>
        </g>
        <g>
          <path fill="#929ED3" d="M1733.108,2145.066c0.392,8.908,6.753,15.887,14.727,15.942c7.877,0.146,14.863-6.586,16.046-15.373
					L1733.108,2145.066z"></path>
        </g>
        <g>
          <path fill="#929ED3" d="M1674.845,2172.584c-0.213,9.64,6.534,17.5,15.063,17.607c8.522,0.107,15.673-7.566,15.979-17.191
					c0.307-9.683-6.42-17.675-15.035-17.797C1682.229,2155.081,1675.06,2162.886,1674.845,2172.584z"></path>
        </g>
        <g>
          <path fill="#929ED3" d="M1617.895,2142.934c0.481,9.096,7.208,16.36,15.364,16.51c8.159,0.059,14.963-6.863,15.78-15.934
					L1617.895,2142.934z"></path>
        </g>
        <g opacity=".5">
          <path fill="#929ED3" d="M1559.987,2171.046c0.133,9.695,7.231,17.6,15.85,17.709c8.612,0.107,15.558-7.609,15.521-17.289
					c-0.038-9.739-7.123-17.777-15.829-17.901C1566.815,2153.442,1559.854,2161.292,1559.987,2171.046z"></path>
        </g>
        <g>
          <path fill="#929ED3" d="M1785.132,2232.725c-0.531,9.239,5.764,16.756,14.053,16.838c8.283,0.082,15.492-7.29,16.11-16.515
					c0.623-9.279-5.65-16.919-14.02-17.015C1792.898,2215.937,1785.667,2223.433,1785.132,2232.725z"></path>
        </g>
        <g opacity=".5">
          <path fill="#929ED3" d="M1730.604,2204.976c-0.375,9.436,6.142,17.121,14.549,17.215c8.401,0.095,15.582-7.426,16.048-16.847
					c0.469-9.478-6.027-17.291-14.518-17.399C1738.185,2187.836,1730.983,2195.484,1730.604,2204.976z"></path>
        </g>
        <g>
          <path fill="#929ED3" d="M1673.542,2231.533c-0.206,9.29,6.422,16.848,14.796,16.931c8.367,0.083,15.384-7.329,15.679-16.605
					c0.296-9.331-6.314-17.014-14.771-17.111C1680.783,2214.651,1673.748,2222.189,1673.542,2231.533z"></path>
        </g>
        <g>
          <path fill="#929ED3" d="M1617.439,2201.65c-0.041,9.488,6.818,17.217,15.312,17.312c8.488,0.096,15.472-7.466,15.604-16.941
					c0.133-9.531-6.709-17.388-15.289-17.499C1624.48,2184.412,1617.48,2192.104,1617.439,2201.65z"></path>
        </g>
        <g opacity=".5">
          <path fill="#929ED3" d="M1560.761,2232.294c0.127,9.341,7.093,16.941,15.553,17.026c8.454,0.083,15.273-7.369,15.237-16.697
					c-0.037-9.383-6.989-17.109-15.534-17.208C1567.465,2215.318,1560.632,2222.897,1560.761,2232.294z"></path>
        </g>
        <g opacity=".5">
          <path fill="#929ED3" d="M1781.881,2289.243c-0.513,8.91,5.68,16.145,13.822,16.205c8.136,0.059,15.209-7.068,15.806-15.966
					c0.601-8.95-5.571-16.301-13.791-16.374C1789.491,2273.035,1782.397,2280.28,1781.881,2289.243z"></path>
        </g>
        <g opacity=".5">
          <path fill="#929ED3" d="M1728.304,2262.689c-0.363,9.096,6.043,16.49,14.299,16.562c8.25,0.071,15.297-7.197,15.746-16.28
					c0.452-9.137-5.934-16.652-14.271-16.737C1735.735,2246.15,1728.669,2253.538,1728.304,2262.689z"></path>
        </g>
        <g>
          <path fill="#929ED3" d="M1672.285,2288.358c-0.197,8.958,6.314,16.231,14.539,16.291c8.219,0.061,15.105-7.105,15.39-16.05
					c0.285-8.998-6.209-16.389-14.514-16.462C1679.389,2272.063,1672.484,2279.347,1672.285,2288.358z"></path>
        </g>
        <g>
          <path fill="#929ED3" d="M1617.191,2259.681c-0.039,9.147,6.696,16.581,15.037,16.653c8.335,0.072,15.189-7.235,15.317-16.368
					c0.129-9.187-6.59-16.743-15.013-16.828C1624.102,2243.052,1617.231,2250.481,1617.191,2259.681z"></path>
        </g>
        <g>
          <path fill="#929ED3" d="M1561.576,2287.463c0.123,9.006,6.961,16.318,15.269,16.38c8.302,0.061,14.998-7.143,14.963-16.136
					c-0.035-9.045-6.86-16.477-15.25-16.552C1568.163,2271.082,1561.453,2278.404,1561.576,2287.463z"></path>
        </g>
        <g>
          <path fill="#929ED3" d="M1778.744,2343.768c-0.494,8.6,5.598,15.568,13.598,15.606c7.995,0.039,14.937-6.856,15.513-15.444
					c0.58-8.638-5.491-15.716-13.568-15.766C1786.204,2328.113,1779.242,2335.119,1778.744,2343.768z"></path>
        </g>
        <g>
          <path fill="#929ED3" d="M1726.122,2316.379c-0.349,8.776,5.949,15.894,14.06,15.943c8.105,0.05,15.021-6.978,15.455-15.742
					c0.436-8.814-5.843-16.046-14.032-16.108C1733.409,2300.409,1726.474,2307.552,1726.122,2316.379z"></path>
        </g>
        <g>
          <path fill="#929ED3" d="M1671.073,2343.169c-0.191,8.644,6.21,15.647,14.29,15.686c8.074,0.04,14.836-6.89,15.111-15.523
					c0.276-8.682-6.108-15.798-14.266-15.849C1678.044,2327.432,1671.266,2334.476,1671.073,2343.169z"></path>
        </g>
        <g opacity=".5">
          <path fill="#929ED3" d="M1616.917,2317.6c-0.038,8.823,6.577,15.978,14.77,16.028c8.186,0.05,14.917-7.015,15.041-15.824
					c0.123-8.86-6.476-16.132-14.749-16.194C1623.701,2301.547,1616.954,2308.727,1616.917,2317.6z"></path>
        </g>
        <g>
          <path fill="#929ED3" d="M1562.329,2342.564c0.118,8.688,6.834,15.728,14.994,15.768c8.155,0.039,14.734-6.926,14.7-15.603
					c-0.034-8.727-6.737-15.88-14.976-15.932C1568.801,2326.746,1562.209,2333.825,1562.329,2342.564z"></path>
        </g>
        <g>
          <path fill="#929ED3" d="M1775.716,2396.405c-0.477,8.305,5.517,15.02,13.381,15.04c7.859,0.019,14.675-6.655,15.231-14.95
					c0.56-8.34-5.415-15.16-13.352-15.191C1783.032,2381.274,1776.197,2388.053,1775.716,2396.405z"></path>
        </g>
        <g opacity=".5">
          <path fill="#929ED3" d="M1723.981,2370.085c-0.337,8.472,5.856,15.329,13.827,15.358c7.965,0.029,14.755-6.772,15.174-15.232
					c0.422-8.508-5.754-15.474-13.8-15.514C1731.13,2354.656,1724.321,2361.566,1723.981,2370.085z"></path>
        </g>
        <g>
          <path fill="#929ED3" d="M1669.904,2396.074c-0.185,8.346,6.109,15.094,14.049,15.114c7.935,0.019,14.578-6.688,14.842-15.023
					c0.267-8.382-6.01-15.237-14.025-15.268C1676.748,2380.865,1670.09,2387.68,1669.904,2396.074z"></path>
        </g>
        <g>
          <path fill="#929ED3" d="M1616.722,2369.62c-0.037,8.515,6.464,15.406,14.513,15.436c8.043,0.029,14.655-6.806,14.774-15.31
					c0.12-8.551-6.366-15.553-14.492-15.594C1623.386,2354.112,1616.758,2361.057,1616.722,2369.62z"></path>
        </g>
        <g>
          <path fill="#929ED3" d="M1563.055,2395.738c0.114,8.389,6.711,15.17,14.729,15.19c8.013,0.02,14.478-6.721,14.445-15.098
					c-0.033-8.424-6.616-15.313-14.712-15.345C1569.417,2380.454,1562.939,2387.303,1563.055,2395.738z"></path>
        </g>
        <g>
          <path fill="#929ED3" d="M1773.286,2444.185l27.672,2.83c0.424-7.966-5.483-14.381-13.179-14.431
					C1781.01,2432.644,1775.077,2437.635,1773.286,2444.185z"></path>
        </g>
        <g>
          <path fill="#929ED3" d="M1721.914,2421.944c-0.326,8.183,5.767,14.792,13.602,14.802c7.829,0.011,14.499-6.574,14.903-14.747
					c0.406-8.218-5.669-14.93-13.576-14.951C1728.929,2407.027,1722.243,2413.715,1721.914,2421.944z"></path>
        </g>
        <g>
          <path fill="#929ED3" d="M1616.539,2421.722c-0.043,2.317,0.475,4.459,1.458,6.425l24.247,2.488
					c1.899-2.376,2.977-5.509,3.039-8.847c0.153-8.248-6.304-15.043-14.28-15.005
					C1623.03,2406.727,1616.506,2413.468,1616.539,2421.722z"></path>
        </g>
      </g>
    </g>
    <polygon fill="#929ED3" points="1807.563 2447.719 1847.987 2397.194 1872.699 2114.65 1833.85 2146.969"></polygon>
    <polygon fill="#E4C012" points="1822.726 2428.769 1847.168 2135.888 1562.146 2128.7 1593.055 2112.606 1864.311 2121.63 1833.357 2415.48"></polygon>
    <polygon fill="#FFD600" points="1639.509 2430.381 1631.228 2143.22 1695.239 2108.07 1759.096 2110.438 1721.103 2145.464 1702.125 2436.842"></polygon>
    <path fill="#E4C012" d="M1631.264,2143.249l8.225,287.123l62.652,6.445l1.17-18.151c-16.567-1.606-43.113-5.065-48.65-11.564
		c-8.168-9.517-15.632-242.568-11.463-247.405c4.353-4.741,74.321-12.812,74.321-12.812l-72.575-1.343c0,0,7.723-6.532,11.233-5.728
		c2.4,0.511,45.712-0.08,71.589-0.527l31.317-28.815l-63.841-2.387L1631.264,2143.249z"></path>
    <g>
      <path fill="#FFD600" d="M1764.331,2050.716c-9.489-2.054-18.822,6.001-26.805,17.021l-0.083,0.073
			c-14.165,19.526-24.248,48.577-24.248,48.577s3.67,1.962,11.178,4.578c0.233,0.016,0.458,0.109,0.686,0.203l-0.005,0.075
			c8.42,2.912,21.522,6.613,39.123,9.304c26.137,3.902,47.758-2.139,56.999-9.966c0.077,0.005,0.081-0.073,0.16-0.067
			c2.637-2.225,4.206-4.68,4.443-6.992C1827.04,2103.123,1790.739,2056.345,1764.331,2050.716z M1728.307,2107.877
			c0.853-1.106,1.96-2.505,3.16-4.132c1.701-2.134,3.658-4.64,5.779-7.212c0,0,0.089-0.149,0.177-0.298
			c9.835-11.981,23.081-26.056,27.914-21.839c8.144,6.931,3.364,22.135,13.198,27.085c2.101,1.077,4.036,2.299,5.811,3.586
			l0.071,0.082c6.432,4.717,9.845,10.389,5.449,12.183c-5.431,2.187-45.428,2.145-61.647-4.801c-0.304-0.1-0.602-0.275-0.906-0.374
			c-0.297-0.175-0.602-0.275-0.828-0.369c-0.227-0.091-0.371-0.257-0.747-0.439
			C1725.737,2111.35,1727.113,2109.426,1728.307,2107.877z"></path>
      <path fill="#C9A923" d="M1728.307 2107.877c-1.194 1.55-2.569 3.474-2.569 3.474.376.182.52.347.747.439.148.089.374.183.828.369l-1.514 6.186-.083.073-.656 2.751c-.227-.094-.453-.187-.686-.203-7.508-2.616-11.178-4.578-11.178-4.578s10.083-29.051 24.248-48.577l.083-.073L1728.307 2107.877zM1784.345 2105.068c-1.775-1.288-3.71-2.509-5.811-3.586-9.833-4.949-5.054-20.154-13.198-27.085-4.833-4.218-18.079 9.857-27.914 21.839 1.697-3.223 15.649-28.666 24.498-28.6 9.555-.039 11.306 13.984 13.963 23.878C1778.534 2101.481 1782.503 2103.62 1784.345 2105.068z"></path>
      <path fill="#F1E0D2" d="M1821.176,2120.582c-9.241,7.827-30.862,13.868-56.999,9.966
			c-17.601-2.691-30.703-6.392-39.123-9.304l0.005-0.075c-0.227-0.094-0.453-0.187-0.686-0.203l1.342-2.548l0.083-0.073
			c0,0,23.407,9.694,40.832,10.431C1784.055,2129.512,1808.581,2126.392,1821.176,2120.582z" opacity=".47"></path>
    </g>
    <g>
      <path fill="#FFD600" d="M1692.752,2026.667c-90.435,9.601-106.248,62.951-90.955,79.93c1.084,1.162,2.4,2.341,3.877,3.452
			c19.643,14.715,73.337,22.23,114.318,13.641c0.235-0.06,0.313-0.054,0.313-0.054S1765.178,2018.976,1692.752,2026.667z
			 M1712.487,2113.153c-8.53-0.201-74.019-2.237-86.071-16.662c-1.223-1.404-1.893-2.926-1.931-4.637
			c-0.335-19.905,56.549-47.355,76.449-48.7c19.819-1.35,12.485,69.988,12.485,69.988S1713.111,2113.12,1712.487,2113.153z"></path>
      <path fill="#C9A923" d="M1719.993 2123.69c-40.981 8.589-94.674 1.074-114.318-13.641C1646.738 2127.253 1714.848 2123.956 1719.993 2123.69zM1713.419 2113.141c0 0 7.334-71.337-12.485-69.988-19.9 1.344-76.784 28.795-76.449 48.7-4.538-25.4 60.32-56.959 82.504-53.174C1729.092 2042.535 1713.419 2113.141 1713.419 2113.141z"></path>
    </g>
  </g>
  <g>
    <path fill="#EBA090" d="M2271.363,1048.38c0,0,145.308,150.95,153.266,164.682c7.958,13.732,4.944,100.557,0,105.625
		c-4.944,5.068-98.882-58.992-98.882-58.992l-127.557-133.073L2271.363,1048.38z"></path>
    <g>
      <path fill="#3A3A60" d="M2240.736,2249.779l-9.295,177.853c-0.494,9.455,33.294,18.905,75.469,21.109
			c42.175,2.204,76.765-3.672,77.259-13.127l9.295-177.854L2240.736,2249.779z"></path>
      <path fill="#FAB19E" d="M2453.364,1111.598l-152.728-7.982l62.608-118.453c6.158,1.729,12.875,2.873,19.985,3.245
			c7.109,0.371,13.91-0.066,20.216-1.144L2453.364,1111.598z"></path>
      <path fill="#9B69CC" d="M2300.642,1103.513l-63.696,1218.79c-0.494,9.455,33.294,18.905,75.469,21.108
			c42.175,2.204,76.765-3.672,77.259-13.127l63.695-1218.789L2300.642,1103.513z"></path>
      <path fill="#895DBE" d="M2403.077,1108.823l-64.538,1234.904c-8.2,0.276-16.997,0.169-26.125-0.308
			c-9.128-0.478-17.888-1.287-26.014-2.417l64.538-1234.904L2403.077,1108.823z"></path>
      <path fill="#FAB19E" d="M2300.636,1103.605c0.494-9.453,35.084-15.33,77.259-13.125c42.175,2.204,75.964,11.654,75.47,21.106
			c-0.494,9.453-35.084,15.33-77.259,13.126S2300.142,1113.059,2300.636,1103.605z"></path>
      <path fill="#3A3A60" d="M2403.445,987.264c-6.306,1.078-13.106,1.515-20.216,1.144c-7.11-0.371-13.827-1.516-19.985-3.245
			l22.366-42.31L2403.445,987.264z"></path>
    </g>
    <g>
      <g>
        <g>
          <g>
            <path fill="#FAB19E" d="M2461.791,1198.306c0,0,18.155-8.348-0.726-27.427c-18.883-19.078-33.877-9.162-32.22-0.628
						c1.656,8.534,2.084,14.134,15.917,19.336c0,0-12.798,1.181-12.367,11.027c0.433,9.846,8.398,15.558,8.398,15.558
						s-11.584-1.302-13.688,3.27c-2.105,4.571,1.427,16.771,12.969,22.326c0,0-12.815,2.697-5.82,16.566
						c6.995,13.869,9.584,9.518,9.584,9.518l-1.469,18.095c0,0,24.021-5.928,17.41-34.015c0,0,15.4-10.562-0.645-25.486
						C2459.134,1226.447,2481.564,1214.025,2461.791,1198.306z"></path>
          </g>
        </g>
        <g>
          <path fill="#DB8F82" d="M2461.55 1198.343c-.589.614-4.076-2.098-8.827-4.421-4.728-2.406-8.93-3.458-8.886-4.202.001-.829 4.945-.974 10.147 1.668C2459.222 1193.969 2462.079 1197.868 2461.55 1198.343zM2459.729 1226.486c-.309.276-1.34-.35-3.001-1.265-1.665-.924-4.003-2.14-6.628-3.464-5.25-2.648-9.579-4.838-9.308-5.585.255-.725 5.125.307 10.586 3.058 2.725 1.374 5.056 2.951 6.539 4.38C2459.412 1225.041 2460.007 1226.246 2459.729 1226.486zM2459.779 1251.932c-.354.247-1.323-.579-2.98-1.646-1.677-1.064-4.11-2.341-6.95-3.554-5.669-2.444-10.562-4.008-10.396-4.793.134-.745 5.477-.401 11.524 2.197 3.014 1.285 5.564 2.993 7.095 4.604C2459.606 1250.377 2460.073 1251.744 2459.779 1251.932z"></path>
        </g>
      </g>
    </g>
    <path fill="#FFD600" d="M2120.124,870.303c0,0,48.796,3.744,51.828,11.522c3.031,7.777,75.895,134.417,128.685,166.554
		c17.271,10.515-73.766,111.901-81.85,107.859c-8.084-4.042-84.796-59.477-89.058-79.688
		C2125.468,1056.34,2120.124,870.303,2120.124,870.303z"></path>
    <path fill="#E4C012" d="M2254.738,1124.498c-17.051,18.896-32.784,33.312-35.948,31.729c-8.087-4.043-84.818-59.503-89.037-79.719
		c-1.759-8.086-3.693-43.068-5.274-82.006C2145.573,1027.726,2196.289,1096.021,2254.738,1124.498z"></path>
    <g>
      <g>
        <g>
          <path fill="#FAB19E" d="M1807.922,1040.182c0,0-113.528,92.143-115.722,104.07c-2.193,11.927,0.377,37.058,13.72,53.897
					c13.343,16.839,52.755,14.84,52.755,14.84l113.91-76.661L1807.922,1040.182z"></path>
          <path fill="#EBA090" d="M1762.706,1077.678c5.056,20.792,20.948,71.459,57.82,93.71l52.084-35.015l-64.712-96.219
					C1807.898,1040.154,1786.797,1057.281,1762.706,1077.678z"></path>
          <path fill="#FAB19E" d="M1437.002,1099.136c0,0,267.683,12.401,291.973,18.31c24.289,5.908,52.461,12.279,54.886,33.133
					c3.098,26.629-11.451,53.371-28.879,60.144c-34.895,13.562-336.176-61.121-336.176-61.121L1437.002,1099.136z"></path>
          <path fill="#EBA090" d="M1721.12 1119.426c-3.179-.788 4.237 29.707 6.73 23.203C1730.343 1136.124 1722.421 1119.748 1721.12 1119.426zM1724.713 1121.507c-.499.248 28.81 36.781 29.237 31.506C1754.377 1147.739 1729.731 1119.011 1724.713 1121.507z"></path>
          <g>
            <path fill="#FAB19E" d="M1378.352,1055.054c-3.52,2.183-3.691,5.915-0.836,9.921c6.082,8.533,12.99,16.402,19.702,24.883
						c-20.481-2.419-42.579-4.595-63.059-7.013c-0.842,2.544,0.537,5.071,2.203,6.516c1.665,1.446,3.762,2.28,5.826,3.055
						c8.092,3.035,16.375,5.558,24.784,7.549c-14.449,0.158-24.824-0.071-38.396,0.64c-0.243,2.077,0.872,4.963,2.621,6.109
						c1.749,1.146,5.538,1.968,7.582,2.406c9.288,1.989,16.882,3.616,26.169,5.606c-10.012,0.787-20.397,2.676-30.41,3.464
						c-0.555,1.52,0.616,4.149,1.86,5.183c1.246,1.034,2.832,1.597,4.42,1.908c8.066,1.58,18.816,2.561,25.31,3.564
						c-6.662,1.195-13.442,3.128-20.104,4.323c0.282,6.366,8.205,4.215,13.262,5.179c20.994,4,43.012,8.291,64.007,12.291
						c0,0,15.858,2.978,27.998,4.216c0.073-0.681,7.802-48.235,8.748-52.197c-5.818-0.944-18.061-3.176-18.061-3.176
						C1427.248,1075.719,1412.451,1076.781,1378.352,1055.054z"></path>
            <path fill="#DB8F82" d="M1372.845 1100.326c-.045.511-2.453.719-5.379.463-2.926-.256-5.261-.878-5.217-1.389s2.453-.719 5.379-.463C1370.554 1099.192 1372.89 1099.814 1372.845 1100.326zM1372.411 1115.487c-.045.512-2.453.72-5.379.464-2.926-.256-5.261-.878-5.217-1.389s2.453-.719 5.379-.463C1370.12 1114.354 1372.455 1114.976 1372.411 1115.487zM1373.189 1129.69c-.045.511-2.453.718-5.379.463-2.926-.255-5.262-.877-5.217-1.388.044-.511 2.452-.719 5.378-.463C1370.898 1128.557 1373.234 1129.178 1373.189 1129.69zM1382.027 1130.337c-.511-.053-.278-6.37.52-14.11.797-7.74 1.859-13.972 2.369-13.919.511.053.278 6.37-.52 14.11C1383.598 1124.158 1382.537 1130.39 1382.027 1130.337zM1416.179 1112.752c-.013.127-.505.168-1.402.129-.888-.074-2.217-.047-3.764-.549-3.13-.683-7.438-2.864-10.468-6.929-3.089-4.01-4.142-8.549-4.569-11.688-.363-3.198-.057-5.187.193-5.175.261.005.427 1.937 1.102 4.95.734 2.964 1.934 7.147 4.754 10.79 2.759 3.691 6.5 5.825 9.379 6.797 1.403.635 2.653.8 3.482 1.088C1415.726 1112.422 1416.192 1112.624 1416.179 1112.752zM1441.097 1102.898c.125-.027.341.521.626 1.543.284 1.022.68 2.515.879 4.406.533 3.758.612 9.087-.428 14.812-1.995 11.552-7.385 19.62-7.789 19.287-.457-.227 4.038-8.441 5.958-19.612C1442.477 1112.178 1440.471 1102.994 1441.097 1102.898z"></path>
          </g>
        </g>
        <path fill="#FFD600" d="M1961.676,879.004c0,0-48.797,3.744-51.828,11.522c-3.031,7.778-101.824,138.096-154.614,170.233
				c-17.271,10.515,84.836,104.324,92.92,100.282c8.084-4.042,99.655-55.578,103.917-75.789
				C1956.332,1065.041,1961.676,879.004,1961.676,879.004z"></path>
        <path fill="#E4C012" d="M1808.023,1132.546c18.97,17.093,36.627,30.146,40.102,28.456c8.076-4.038,99.643-55.503,103.963-75.789
				c1.879-9.109,4.039-52.404,5.823-96.919C1927.953,1030.273,1866.532,1108.41,1808.023,1132.546z"></path>
      </g>
      <g>
        <g>
          <g>
            <path fill="#28264A" d="M1993.149,2428.498l-1.758,11.108c4.542,6.527-142.788,38.707-140.605-1.64L1993.149,2428.498z"></path>
            <path fill="#FFD600" d="M1865.939,2424.183c61.957-20.728,101.958-58.707,127.869-31.118c4.272,8.314-1.317,20.421-0.6,38.015
						c0.423,10.327-78.269,26.997-118.734,20.458C1864.799,2449.972,1831.545,2438.776,1865.939,2424.183z"></path>
            <path fill="#FAB19E" d="M1993.532,2323.204c-0.864,1.239-7.443,73.553-7.443,73.553s-0.784,8.478-15.513,13.221
						c-18.008,5.797-20.766-2.436-20.766-2.436l-14.327-74.744L1993.532,2323.204z"></path>
            <path fill="#EAA98C" d="M1989.271,2363.059c-7.697,3.979-19.444,8.727-31.746,8.274c0.78,3.908-3.04,19.227,2.381,28.054
						c4.046,6.671,17.918,0.958,26.311-4.148c-0.063,0.959-0.098,1.511-0.098,1.511s-0.827,8.488-15.536,13.25
						c-18.013,5.789-20.784-2.449-20.784-2.449l-14.297-74.781l58.011-9.6C1993.058,2323.829,1991.062,2343.955,1989.271,2363.059z"></path>
            <path fill="#28264A" d="M1950.421,2410.407c21.49-43.64-4.624-62.075-26.493-10.508c0,0-49.618,17.133-54.093,22.636
						C1865.363,2428.038,1890.681,2441.493,1950.421,2410.407z"></path>
          </g>
          <path fill="#E06020" d="M2078.723,1327.622l-214.506,4.044c0,0,55.317,1020.856,70.251,1028.303
					c14.933,7.447,52.566-1.226,59.864-4.521c7.298-3.296,77.257-837.246,77.257-837.246S2105.88,1368.817,2078.723,1327.622z"></path>
          <path fill="#D3581E" d="M2071.573,1518.204c0,0-69.953,833.96-77.222,837.228c-3.933,1.801-16.671,5.135-29.875,6.669
					c51.748-83.222,39.944-429.583,41.879-464.659c1.934-36.543-39.477-25.007-63.484-40.011
					c-24.007-15.004,52.482,1.467,63.484-10.003c10.936-11.536-9.469-14.005-21.472-18.538c-12.003-4.468,16.471-4.468,36.01-20.206
					c19.473-15.803-19.539-210.789-27.741-231.796c-5.735-14.537-76.287-54.414-119.565-77.954
					c-5.735-100.027-9.336-167.246-9.336-167.246l214.458-4.067C2105.849,1368.831,2071.573,1518.204,2071.573,1518.204z"></path>
        </g>
        <g>
          <g>
            <path fill="#28264A" d="M2138.915,2435.522l2.61,10.939c-4.025,6.858,145.35,27.566,140.058-12.493L2138.915,2435.522z"></path>
            <path fill="#FFD600" d="M2265.412,2421.397c-63.373-15.882-106.187-50.659-129.891-21.152
						c-3.617,8.62,2.89,20.258,3.534,37.855c0.376,10.329,80.12,20.872,119.959,11.228
						C2268.54,2447.021,2300.83,2433.291,2265.412,2421.397z"></path>
            <path fill="#FAB19E" d="M2130.402,2330.572c0.958,1.168,13.101,72.759,13.101,72.759s1.437,8.392,16.487,11.983
						c18.403,4.389,20.516-4.032,20.516-4.032l8.512-75.626L2130.402,2330.572z"></path>
            <path fill="#EAA98C" d="M2137.728,2369.979c7.982,3.373,20.06,7.2,32.29,5.798c-0.476,3.956,4.516,18.935-0.207,28.154
						c-3.519,6.963-17.792,2.339-26.553-2.104c0.137,0.953,0.215,1.499,0.215,1.499s1.48,8.4,16.512,12.011
						c18.406,4.381,20.534-4.048,20.534-4.048l8.479-75.662l-58.579-5.091C2130.922,2331.159,2134.467,2351.07,2137.728,2369.979z"></path>
            <path fill="#28264A" d="M2180.118,2414.185c-24.795-41.85-0.183-62.246,25.602-12.522c0,0,50.793,13.251,55.679,18.392
						C2266.284,2425.196,2242.08,2440.566,2180.118,2414.185z"></path>
          </g>
          <path fill="#E06020" d="M2009.425,1343.532l208.788-15.91c0,0-11.77,1026.467-26.084,1035.045
					c-14.314,8.578-52.504,2.838-60.035,0.115C2124.563,2360.059,2025.246,1529.659,2009.425,1343.532z"></path>
          <path fill="#D3581E" d="M2009.422,1343.557c15.805,186.119,115.165,1016.478,122.701,1019.211
					c7.469,2.733,45.679,8.469,60.016-0.134c14.271-8.536,26.074-1035.015,26.074-1035.015L2009.422,1343.557z M2189.005,2281.212
					c0,0-15.071,41.345-29.275,36.41c-14.271-4.935-59.349-392.641-59.349-409.179c0-16.471,49.547-22.472,51.014-42.01
					c1.534-19.54-30.008-1.468-54.015-10.47c-23.94-9.003,25.54-13.537,33.009-21.006c7.469-7.535-37.477-16.538-41.211-49.546
					c-3.734-33.009,6.735-217.592,6.735-217.592s78.021-97.494,93.092-90.692
					C2204.076,1483.995,2189.005,2281.212,2189.005,2281.212z"></path>
          <path fill="#C6501C" d="M2051.149,1744.793l18.426-216.791c0,0,62.921-39.056,66.265-75.829c0,0-106.309,49.477-171.164,14.041
					c0,0,16.046,52.151,58.168,62.18L2051.149,1744.793z"></path>
        </g>
      </g>
      <path fill="#FFD600" d="M2229.31,1350.547c0,0-153.165,41.813-205.893,39.129c-52.728-2.684-183.765-21.191-177.986-32.302
			c68.869-132.427,85.577-471.66,116.246-478.371c30.668-6.711,161.365-16.284,180.647-7.137
			C2150.221,875.614,2229.31,1350.547,2229.31,1350.547z"></path>
      <path fill="#E4C012" d="M2229.336,1350.563c0,0-153.2,41.837-205.937,39.113c-52.737-2.725-183.787-21.182-177.987-32.257
			c38.41-73.745,60.56-211.651,77.963-320.464c4.307,71.898,9.493,181.677,3.604,207.694c-8.878,39.552,47.023,2.813,30.939,27.16
			c-16.086,24.259-61.263,41.398-38.674,47.198c22.588,5.714,71.019-21.006,63.109-5.185c-7.911,15.822-39.992,22.94-24.435,33.225
			c15.557,10.283,71.985,14.589,79.369,15.907c7.383,1.32,151.618-14.502,136.851-27.334c-14.766-12.832-22.677-38.587-5.888-31.643
			c16.875,6.944,28.653,5.098,21.797-6.328c-6.943-11.512-52.561-50.012-31.729-47.11c20.831,2.987,34.63,14.853,31.729-6.856
			c-1.582-11.515-4.834-92.905-7.559-166.911C2205.429,1206.766,2229.336,1350.563,2229.336,1350.563z"></path>
      <path fill="#E06020" d="M2158.331 951.228c0 0 24.39 177.364 30.571 170.763C2195.083 1115.391 2174.082 953.367 2158.331 951.228zM1930.573 963.769c0 0-31.804 201.592-24.743 197.399C1912.89 1156.974 1943.534 966.563 1930.573 963.769z"></path>
      <g>
        <g>
          <g>
            <path fill="#FAB19E" d="M2006.925,790.199l48.544-4.016l20.32,77.96c0,0-15.12,31.309-39.436,28.199
						c-24.431-3.062-35.712-24.337-35.712-24.337L2006.925,790.199z"></path>
            <path fill="#EBA090" d="M2004.023,826.63c9.642,4.67,23.174,9.957,32.878,8.507c10.299-1.502,21.08-8.442,27.834-13.472
						l-9.229-35.518l-48.565,4.019L2004.023,826.63z"></path>
            <path fill="#E06020" d="M2074.298,847.144c0,0-13.639,20.979-35.694,23.362c-22.055,2.384-39.02-14.563-39.02-14.563
						s-11.406,15.704-10.654,19.685c0.753,3.98,34.151,33.654,56.88,32.013c18.935-1.368,42.417-36.037,41.303-39.536
						C2086,864.606,2074.298,847.144,2074.298,847.144z"></path>
          </g>
          <g>
            <g>
              <path fill="#FAB19E" d="M2092.222,748.152l-4.805-50.236C2126.732,671.515,2125.688,744.839,2092.222,748.152z"></path>
              <path fill="#EBA090" d="M2087.448,697.918l4.756,50.204c8.772-0.887,15.346-6.655,19.648-14.112
							c-5.127-0.612-10.199-1.938-11.989-4.849c-2.794-4.947-4.046-25.958-4.41-35.484
							C2093.056,694.594,2090.349,696.011,2087.448,697.918z"></path>
              <path fill="#3A3A60" d="M2106.025,708.669c-28.5,19.153,18.46,11.967-3.83,7.746
							C2102.195,716.415,2110.91,707.323,2106.025,708.669z"></path>
            </g>
            <g>
              <path fill="#FAB19E" d="M1958.601,759.87l-4.011-50.306C1911.28,690.408,1925.07,762.432,1958.601,759.87z"></path>
              <path fill="#EBA090" d="M1936.782,749.242c5.427,6.723,12.905,11.259,21.815,10.595l-4.053-50.265
							c-2.583-1.19-5.007-1.921-7.177-2.439c1.234,10.039,2.843,29.722-1.49,36.827
							C1944.015,746.957,1940.615,748.553,1936.782,749.242z"></path>
              <path fill="#3A3A60" d="M1942.302,731.364c0,0-9.71-7.103-4.891-6.649C1967.405,737.992,1922.037,739.041,1942.302,731.364z"></path>
            </g>
            <path fill="#FAB19E" d="M2082.535,650.395c0,0-76.83,32.624-129.461,14.361c0,0-25.332,162.188,76.377,161.374
						C2130.922,825.318,2082.535,650.395,2082.535,650.395z"></path>
            <path fill="#3A3A60" d="M1992.485 746.06c-4.735.467-9.136-4.799-9.803-11.734-.666-6.936 2.602-12.872 7.336-13.337 1.334-.133 2.667.199 3.868.933-1.334.933-2.201 2.466-2.201 4.267 0 2.935 2.334 5.268 5.269 5.268.933 0 1.801-.267 2.533-.666.201.601.267 1.2.334 1.868C2000.554 739.594 1997.219 745.595 1992.485 746.06zM2050.163 738.759c-4.735.467-9.136-4.799-9.803-11.735-.666-6.935 2.602-12.871 7.336-13.337 1.334-.133 2.667.199 3.868.933-1.334.933-2.201 2.467-2.201 4.267 0 2.935 2.334 5.269 5.269 5.269.933 0 1.801-.267 2.533-.666.2.601.267 1.2.333 1.867C2058.232 732.293 2054.898 738.294 2050.163 738.759zM2019.477 637.196c92.456 1.939 76.622 61.367 76.622 61.367s-2.836 17.644-4.86 7.607c-2.046-10.033-15.554-51.745-15.554-51.745s-12.775 12.075-43.54 15.809c-30.819 3.718-79.38-.931-79.38-.931s2.495 50.701-2.977 46.742c0 0-6.427-11.4-8.959-27.247C1938.996 677.204 1975.916 636.282 2019.477 637.196z"></path>
            <g>
              <path fill="#3A3A60" d="M2004.022 705.911c.111 2.841-6.536-1.466-17.071-1.752-13.905-.377-16.393 11.323-15.696 4.563C1972.843 693.326 2003.612 695.249 2004.022 705.911zM2032.012 700.287c.526 2.795 6.045-2.885 16.251-5.511 13.472-3.467 18.504 7.385 16.319.95C2059.604 681.071 2030.036 689.801 2032.012 700.287zM2023.092 733.547c-17.767 63.135 33.964 22.409.635 27.415C2023.727 760.962 2025.4 732.916 2023.092 733.547zM2049.932 780.596c-7.902-5.918-18.528 10.648-33.052 3.373-12.495 4.03-1.146 16.057 15.85 13.726C2046.487 795.338 2054.571 786.92 2049.932 780.596z"></path>
            </g>
          </g>
        </g>
        <g>
          <path fill="#DFE4EF" d="M2136.227,613.417c0,0,13.739,2.624,15.383,13.622c1.644,10.998-14.372,16.697-22.999,10.53
					C2119.984,631.402,2126.385,613.307,2136.227,613.417z"></path>
          <path fill="#B9C1E1" d="M2150.36,623.171c0.605,1.136,0.992,2.461,1.232,3.913c1.628,10.982-14.354,16.705-22.946,10.503
					c-8.664-6.14-2.207-24.283,7.563-24.218c0,0,1.142,0.284,2.883,0.816c-1.354,3.734-4.759,17.304,2.35,15.338
					C2145.066,628.543,2148.121,625.885,2150.36,623.171z"></path>
          <path fill="#E06020" d="M1931.117,682.19c0.375-25.418,8.3-75.789,61.3-104.555c72.959-39.597,143.81,35.782,143.81,35.782
					s2.436,46.715-37.329,42.598C2093.628,655.467,2012.777,618.71,1931.117,682.19z"></path>
          <path fill="#D3581E" d="M1931.099,682.182c81.664-63.473,162.528-26.712,167.808-26.167
					c39.77,4.125,37.318-42.572,37.318-42.572s-9.353-9.927-24.703-20.713c11.34,14.495,18.467,23.154,17.458,25.358
					c-2.556,5.317-18.236-5.68-20.874-5.538c-2.698,0.137,6.766,13.889,9.533,19.547c2.736,5.685-2.669,16.269-5.422,14.245
					c-84.478-62.108-159.729-6.629-179.234,15.144C1931.669,669.312,1931.205,676.399,1931.099,682.182z"></path>
          <path fill="#DFE4EF" d="M2096.356,699.505c0,0-31.965-43.941-84.864-36.357c-28.756,4.122-53.709,17.159-62.069,44.027
					c0,0-12.203-0.981-16.607-21.376c-4.404-20.396,25.059-47.174,76.084-56.352c64.938-11.681,87.753,37.185,87.753,37.185
					S2103.41,686.797,2096.356,699.505z"></path>
        </g>
      </g>
    </g>
  </g>
  <g>
    <path fill="#DFE4EF" d="m1398.558 359.705-2.751-3.212c-16.555 18.853-34.05 35.95-52.133 51.377l-30.925 24.484c-10.917 8.012-21.951 15.498-33.021 22.481l.007-.229-27.747 16.709c-33.158 18.506-66.021 32.818-96.395 43.84-59.976 21.767-116.418 33.266-159.425 39.438-12.358 1.258-24.596 2.136-36.627 2.582l.121-.197-32.385.522c-37.968-.635-73.573-4.753-105.377-10.466-75.557-13.57-139.551-37.475-180.608-55.502l-6.783 1.646c8.595 3.852 18.187 7.981 28.961 12.307 13.076 5.249 27.669 10.712 43.515 16.085 0 0-5.794 81.86 8.759 86.426 15.301 4.799 69.088-64.236 69.088-64.236 2.393.553 11.404 81.508 26.006 84.924 21.296 4.985 59.604-70.439 59.604-70.439 2.385.253 20.67 79.184 37.994 80.421 21.495 1.536 48.382-77.15 48.382-77.15 5.377-.176 35.006 73.349 55.285 72.181 17.183-.986 31.199-65.496 31.199-65.496h.003l2.914-15.665c9.914 19.104 36.371 71.289 48.16 68.631 15.644-3.528 27.51-90.237 27.51-90.237 2.349-.721 50.776 64.772 65.12 60.396 20.922-6.378 16.196-90.84 16.196-90.84 2.189-.978 57.624 58.112 73.229 50.484 19.363-9.463 3.118-91.013 3.118-91.013 4.563-2.851 67.095 45.868 84.05 34.679 14.366-9.479-5.892-72.306-5.892-72.306l.001-.002-1.612-19.737C1370.756 389.449 1384.967 375.157 1398.558 359.705zM2335.271 476.419c-23.572 2.949-46.809 4.104-69.491 3.741l-37.672-1.936c-12.925-1.122-25.624-2.679-38.053-4.608l.141-.155-30.681-5.385c-35.799-7.449-68.891-17.626-98.168-28.563-69.557-25.979-126.772-59.241-163.112-83.021l-6.636.265c7.597 5.049 16.098 10.529 25.689 16.402 11.641 7.127 24.686 14.723 38.929 22.463 0 0-16.68 73.197-3.548 79.972 13.804 7.122 74.089-45.76 74.089-45.76 2.188.937-.377 75.991 12.958 81.731 19.449 8.374 65.979-53.101 65.979-53.101 2.22.661 8.7 75.559 24.906 79.816 20.107 5.283 56.287-61.219 56.287-61.219 5.107.814 23.049 72.86 42.377 75.472 16.375 2.213 38.453-53.759 38.453-53.759h.002l10.493-14.673c18.765-.149 37.878-1.368 57.215-3.772L2335.271 476.419z"></path>
    <g>
      <path fill="#929ED3" d="M1624.566 382.648c0 0-50.336-17.355-102.834 39.121-2.543 2.737-1.107 7.219 2.581 7.848l32.337 5.525 8.288 24.917c1.36 4.097 7.109 4.312 8.73.312C1581.082 442.069 1597.702 407.15 1624.566 382.648zM1660.942 382.648c0 0 50.336-17.355 102.833 39.121 2.543 2.737 1.107 7.219-2.581 7.848l-32.337 5.525-8.288 24.917c-1.364 4.097-7.109 4.312-8.73.312C1704.422 442.069 1687.801 407.15 1660.942 382.648z"></path>
      <path fill="#B9C1E1" d="m1756.016 350.834-5.96-15.159c-4.595-11.691-17.799-17.444-29.491-12.849l-3.662 1.44c-20.287 7.97-38.378 20.587-52.958 36.739-.025-2.34-1.922-4.237-4.271-4.237h-24.523c-1.077 0-2.036.435-2.788 1.094-14.268-15.231-31.729-27.159-51.201-34.813l-3.662-1.44c-11.696-4.595-24.899 1.158-29.495 12.849l-5.96 15.159c-4.595 11.696 1.158 24.899 12.849 29.495l3.662 1.44c21.453 8.43 44.646 11.468 67.544 8.84 2.002-.232 3.814-.824 5.457-1.639.748 1.234 2.044 2.099 3.594 2.099h24.523c1.795 0 3.32-1.111 3.958-2.677 2.26 1.812 5.077 3.057 8.33 3.43 22.898 2.631 46.091-.405 67.544-8.836l3.662-1.44C1754.859 375.734 1760.612 362.526 1756.016 350.834zM1683.032 555.061c0 18.778-15.223 34.001-34.001 34.001s-34.002-15.223-34.002-34.001 15.224-34.001 34.002-34.001S1683.032 536.283 1683.032 555.061z"></path>
      <path fill="#DFE4EF" d="M1732.891,520.962c-9.837-12.329-16.502-25.884-20.279-39.962c-2.45-9.119-3.29-18.598-3.29-28.038
			v-18.036c0-33.753-25.939-62.792-59.654-64.38c-35.996-1.694-65.715,26.991-65.715,62.61v19.713
			c0,9.369-0.832,18.771-3.236,27.827c-3.768,14.188-10.458,27.852-20.368,40.266c-1.504,1.884-3.066,3.734-4.68,5.546v17.056
			c0,6.885,40.718,12.469,90.948,12.469c50.23,0,90.952-5.584,90.952-12.469v-17.056
			C1735.953,524.696,1734.395,522.846,1732.891,520.962z"></path>
      <path fill="#B9C1E1" d="M1737.554,526.496v17.069c0,3.742-12.055,7.117-31.084,9.369c0,0,3.886-10.129,0-15.286
			c-3.886-5.195-69.904,0-86.061-9.077c-16.198-9.043,79.598-14.239,72.481-16.16c-7.117-1.964,0-28.507,0-77.022
			c0-30.251-17.976-51.455-31.523-63.151c27.818,6.902,47.937,32.976,47.937,62.678v18.048c0,9.441,0.87,18.919,3.303,28.034
			c3.776,14.091,10.458,27.636,20.3,39.983C1734.395,522.829,1735.957,524.684,1737.554,526.496z" opacity=".5"></path>
    </g>
  </g>
</svg>
