<?xml version="1.0" encoding="utf-8"?>
<!-- Generator: Adobe Illustrator 27.0.0, SVG Export Plug-In . SVG Version: 6.00 Build 0)  -->
<svg version="1.1" id="Layer_1" xmlns="http://www.w3.org/2000/svg" xmlns:xlink="http://www.w3.org/1999/xlink" x="0px" y="0px"
	 viewBox="0 0 2279.5 2500" style="enable-background:new 0 0 2279.5 2500;" xml:space="preserve">
<style type="text/css">
	.st0{fill:url(#SVGID_1_);}
</style>
<linearGradient id="SVGID_1_" gradientUnits="userSpaceOnUse" x1="1147.14" y1="171.1308" x2="1183.8905" y2="2265.9131">
	<stop  offset="0" style="stop-color:#FFF33B"/>
	<stop  offset="7.107358e-02" style="stop-color:#FEE72E"/>
	<stop  offset="0.2075" style="stop-color:#FED51B"/>
	<stop  offset="0.3481" style="stop-color:#FDCA10"/>
	<stop  offset="0.4978" style="stop-color:#FDC70C"/>
	<stop  offset="0.8022" style="stop-color:#F3903F"/>
	<stop  offset="0.8876" style="stop-color:#ED683C"/>
	<stop  offset="1" style="stop-color:#E93E3A"/>
</linearGradient>
<path class="st0" d="M1544.4,2272.5c-14.2,6.4-28.5,12.4-43,18c-10,4.8-20.2,9.4-30.4,13.7c175.6-193.3,11.4-520.3,11.4-520.3
	c-12.1,147.3-69,148.6-69,148.6c-5.8-110.1-57-198.8-93.1-248.2c-15.4-21.1-33.6-40-53.4-57c-129-110.6-65.4-281.2-65.4-281.2
	c-185.8,64.3-171.7,247-171.7,247c14.1,173.6-68.3,248-68.3,248c-51.2-102.4-117.5-101.8-117.5-101.8c21.7,34.9,13.3,76.4,2.5,104.9
	c-18.1,47.8-37.1,91.2-45.2,139.9l0,0c-15.8,91.9-3.6,146.1-3.6,146.1h0c10.7,79.1,43.5,137.3,83.4,179.9
	c-161.8-57.2-431.9-207.5-480.5-566.9h0c0,0-25.1-111.5,7.5-300.8l0,0.1c16.6-100.5,55.9-189.8,93.1-288.2
	c22.2-58.7,39.4-144.1-5.2-216c0,0,136.4-1.3,241.9,209.6c0,0,169.6-153.2,140.6-510.6c0,0-29-376.3,353.5-508.6
	c0,0-131,351.3,134.7,578.9c40.8,35,78.3,73.9,110,117.4c74.1,101.8,179.7,284.3,191.6,511.1c0,0,117.2-2.8,142-306
	C1810.3,1030.2,2270.1,1945.4,1544.4,2272.5z"/>
</svg>
